<svg width="710" height="635" viewBox="0 0 710 635" fill="none" xmlns="http://www.w3.org/2000/svg">
<path d="M698.133 512.213L424.853 41.0667C393.493 -12.6933 315.093 -12.6933 283.733 41.0667L11.2 512.213C-20.16 566.719 18.6688 634.667 81.388 634.667H627.948C690.667 634.667 729.495 566.719 698.136 512.213H698.133ZM324.053 153.067C324.053 135.895 337.491 122.452 354.668 122.452C371.84 122.452 385.283 135.889 385.283 153.067V378.56C385.283 395.732 371.845 409.175 354.668 409.175C337.496 409.175 324.053 395.737 324.053 378.56V153.067ZM354.668 548.053C329.283 548.053 308.376 527.147 308.376 501.761C308.376 476.376 329.283 455.469 354.668 455.469C380.053 455.469 400.96 476.376 400.96 501.761C400.96 527.147 380.053 548.053 354.668 548.053Z" fill="#FF2D2D"/>
</svg>
