<svg width="747" height="732" viewBox="0 0 747 732" fill="none" xmlns="http://www.w3.org/2000/svg">
<path d="M129.387 265.6C125.361 263.808 120.647 265.621 118.855 269.647C104.158 302.699 96.7101 337.912 96.7101 374.308C96.7101 484.835 167.054 583.148 271.75 618.948C272.604 619.24 273.474 619.381 274.333 619.381C283.057 619.381 285.016 606.62 276.917 603.854C178.671 570.255 112.663 478.01 112.663 374.307C112.663 340.162 119.653 307.13 133.434 276.13C135.226 272.099 133.413 267.385 129.387 265.599L129.387 265.6Z" fill="#007AFF"/>
<path d="M458.427 164.28C458.427 138.572 441.995 117.66 421.796 117.66C401.597 117.66 385.165 138.572 385.165 164.28C385.165 189.988 401.597 210.9 421.796 210.9C441.995 210.9 458.427 189.988 458.427 164.28ZM401.124 164.28C401.124 147.655 410.588 133.613 421.796 133.613C425.348 133.613 428.723 135.035 431.681 137.494C425.963 139.879 421.796 147.254 421.796 155.999C421.796 166.671 428.004 175.322 435.66 175.322C437.733 175.322 439.691 174.671 441.457 173.535C438.738 185.801 430.837 194.947 421.796 194.947C410.593 194.947 401.124 180.905 401.124 164.28Z" fill="#007AFF"/>
<path d="M296.093 210.907C316.291 210.907 332.724 189.989 332.724 164.287C332.724 138.579 316.292 117.667 296.093 117.667C275.896 117.667 259.463 138.579 259.463 164.287C259.463 189.995 275.895 210.907 296.093 210.907ZM296.093 133.62C299.729 133.62 303.171 135.115 306.171 137.677C300.359 139.912 296.093 147.167 296.093 156.005C296.093 166.677 302.302 175.328 309.957 175.328C312.025 175.328 313.978 174.698 315.738 173.599C313.009 185.833 305.119 194.953 296.093 194.953C284.89 194.953 275.421 180.912 275.421 164.287C275.421 147.667 284.89 133.62 296.093 133.62Z" fill="#007AFF"/>
<path d="M254.187 248.853C250.103 250.515 248.14 255.166 249.801 259.249C266.541 300.395 311.192 328.036 360.91 328.036C410.629 328.036 455.28 300.396 472.014 259.249C473.676 255.166 471.712 250.515 467.629 248.853C463.546 247.192 458.895 249.155 457.233 253.239C442.921 288.436 404.206 312.083 360.91 312.083C317.614 312.083 278.9 288.437 264.582 253.239C262.926 249.155 258.27 247.192 254.187 248.853Z" fill="#007AFF"/>
<path d="M731.667 157.333C710.921 136.271 676.011 136.271 655.255 157.333L634.703 178.197C570.656 87.0307 466.916 32.8907 355.209 32.8907C295.975 32.8907 237.715 48.292 186.516 77.432C167.557 74.4893 150.709 64.3487 147.011 43.968L144.203 28.504C140.755 9.49333 125.162 0.982666 111.234 0.982666C97.306 0.982666 81.7126 9.49307 78.2646 28.504L75.4573 43.968C72.5042 60.2333 59.5933 73.1453 43.3266 76.0933L27.8626 78.9007C8.84661 82.3485 0.335938 97.942 0.335938 111.865C0.335938 125.786 8.84634 141.381 27.8626 144.829L43.3266 147.636C59.2799 150.527 71.9773 163.005 75.2479 178.824C35.0079 236.324 13.7426 303.835 13.7426 374.317C13.7426 444.541 34.8106 511.731 74.7319 569.064C72.0079 572.793 69.9559 577.35 68.9611 582.829C67.7424 589.543 62.4142 594.871 55.7007 596.09C37.2941 599.423 29.0554 614.511 29.0554 627.986C29.0554 641.46 37.295 656.548 55.6914 659.887C62.405 661.106 67.7383 666.434 68.9518 673.147C72.2955 691.549 87.3838 699.783 100.864 699.783C114.337 699.783 129.432 691.549 132.77 673.153C133.989 666.439 139.317 661.111 146.031 659.892C151.442 658.908 155.958 656.892 159.662 654.215C217.178 694.486 284.64 715.737 355.208 715.737C408.146 715.737 458.834 703.929 505.942 680.695C516.681 683.904 526.556 687.326 528.863 700.039C532.832 721.903 550.764 731.69 566.78 731.69C582.796 731.69 600.728 721.904 604.698 700.039C606.369 690.831 613.677 683.523 622.886 681.857C644.755 677.888 654.542 659.955 654.542 643.945C654.542 627.929 644.755 610.002 622.886 606.033C618.448 605.225 614.458 603.106 611.323 600.095C661.766 542.902 691.818 469.945 696.12 393.882C696.365 389.481 693.006 385.715 688.605 385.465C684.261 385.21 680.438 388.58 680.188 392.981C676.219 463.174 649.24 530.594 603.891 584.287C598.708 564.923 581.896 556.194 566.776 556.194C550.76 556.194 532.828 565.981 528.859 587.845C527.187 597.053 519.88 604.361 510.671 606.027C488.801 609.996 479.015 627.929 479.015 643.939C479.015 653.304 482.39 663.303 489.546 670.803C447.311 690.017 402.186 699.782 355.199 699.782C288.298 699.782 224.325 679.741 169.706 641.761C171.685 637.329 172.664 632.573 172.664 627.99C172.664 614.517 164.425 599.427 146.028 596.089C139.315 594.87 133.981 589.542 132.768 582.828C129.419 564.427 114.331 556.192 100.856 556.192C96.3247 556.192 91.6163 557.146 87.2306 559.083C49.5639 504.619 29.6946 440.895 29.6946 374.31C29.6946 312.31 46.9546 252.731 79.7573 200.83C84.9917 215.892 98.7626 222.736 111.227 222.736C125.153 222.736 140.748 214.226 144.2 195.21L147.007 179.746C149.955 163.48 162.867 150.574 179.138 147.62L194.602 144.813C213.613 141.365 222.123 125.772 222.123 111.849C222.123 101.714 217.587 90.7184 207.801 84.1411C253.259 61.0317 303.831 48.8291 355.201 48.8291C462.665 48.8291 562.387 101.408 623.294 189.762L359.361 457.696L299.678 382.893C281.318 359.882 246.59 356.19 223.803 374.929C201.33 393.408 197.814 426.94 215.954 449.679L300.542 555.7C326.969 588.825 378.064 591.528 407.829 561.309L731.656 232.576C752.098 211.827 752.098 178.071 731.661 157.321L731.667 157.333ZM513.52 621.733C529.233 618.884 541.708 606.411 544.556 590.697C547.04 577.004 558.077 572.151 566.775 572.151C575.472 572.151 586.509 577.005 588.993 590.697C591.842 606.411 604.321 618.88 620.035 621.733C633.728 624.218 638.581 635.249 638.581 643.947C638.581 652.639 633.722 663.676 620.035 666.16C604.321 669.009 591.847 681.483 588.993 697.196C586.509 710.889 575.472 715.743 566.775 715.743C558.077 715.743 547.04 710.889 544.556 697.196C541.707 681.483 529.228 669.013 513.52 666.16C499.827 663.676 494.973 652.644 494.973 643.947C494.973 635.249 499.827 624.212 513.52 621.733ZM84.6399 585.676C86.4525 575.692 94.4993 572.149 100.843 572.149C107.186 572.149 115.233 575.691 117.045 585.676C119.441 598.895 129.941 609.389 143.16 611.791C153.144 613.603 156.687 621.65 156.687 627.988C156.687 634.332 153.145 642.379 143.16 644.191C129.936 646.587 119.441 657.081 117.045 670.305C115.233 680.29 107.186 683.832 100.843 683.832C94.4989 683.832 86.4519 680.29 84.6399 670.305C82.2441 657.087 71.7441 646.592 58.5253 644.191C48.5409 642.378 44.9986 634.331 44.9986 627.993C44.9986 621.65 48.5402 613.603 58.5253 611.791C71.7441 609.39 82.2386 598.895 84.6399 585.676ZM191.733 129.129L176.269 131.937C153.499 136.067 135.42 154.139 131.285 176.915L128.478 192.379C126.546 203.02 117.968 206.795 111.207 206.795C104.447 206.795 95.8686 203.019 93.9366 192.379L91.1293 176.915C86.999 154.145 68.9213 136.071 46.1453 131.942L30.6813 129.135C20.0354 127.202 16.2599 118.629 16.2599 111.869C16.2599 105.109 20.0359 96.5307 30.6813 94.5987L46.1453 91.7913C68.9266 87.6559 87.0053 69.5833 91.1399 46.8127L93.9473 31.3487C95.8743 20.708 104.452 16.9327 111.213 16.9327C117.973 16.9327 126.551 20.7087 128.483 31.3487L131.291 46.8127C137.03 78.458 163.635 89.4953 191.733 94.594C202.374 96.5263 206.149 105.099 206.149 111.859C206.149 118.62 202.373 127.197 191.733 129.129Z" fill="#007AFF"/>
<path d="M699.32 344.36C699.32 350.527 694.32 355.527 688.153 355.527C681.981 355.527 676.981 350.527 676.981 344.36C676.981 338.193 681.981 333.193 688.153 333.193C694.32 333.193 699.32 338.193 699.32 344.36Z" fill="#007AFF"/>
</svg>
