<svg xmlns="http://www.w3.org/2000/svg" style="width:auto;height:auto" viewBox="0 0 25 22"><path d="M22.043 10.7 12.5 19.923l-9.523-9.2c-2.014-2.106-2.014-5.53 0-7.635a5.017 5.017 0 0 1 3.638-1.573h.002a4.986 4.986 0 0 1 3.634 1.573 5.488 5.488 0 0 1 1.514 3.817h1.47a5.486 5.486 0 0 1 1.513-3.811 5.011 5.011 0 0 1 3.636-1.574h.002a4.986 4.986 0 0 1 3.635 1.574c2.014 2.105 2.014 5.529.021 7.612l.002-.006Zm1.027-8.676A6.424 6.424 0 0 0 18.385 0h-.002a6.42 6.42 0 0 0-4.684 2.022 6.882 6.882 0 0 0-1.2 1.71 6.881 6.881 0 0 0-1.2-1.708A6.417 6.417 0 0 0 6.616 0h-.002C4.843 0 3.178.719 1.927 2.024c-2.573 2.692-2.573 7.071.022 9.782L12.499 22l10.57-10.216c2.575-2.69 2.575-7.067 0-9.76Z" fill="white" fill-rule="evenodd" clip-rule="evenodd"/></svg>